<svg xmlns="http://www.w3.org/2000/svg" xmlns:xlink="http://www.w3.org/1999/xlink" xmlns:inkscape="http://www.inkscape.org/namespaces/inkscape" version="1.1" width="1433.41" height="911.254" viewBox="0 0 1433.41 911.254">
<g inkscape:groupmode="layer" inkscape:label="Layer 1">
<path transform="matrix(1,0,0,-1,0,911.254)" d="M0 0H1433.412V911.254H0Z" fill="#ffffff"/>
<path transform="matrix(1,0,0,-1,409.208,324.45973)" d="M0 0-26.873 18.886V19.306H-55.834V-281.64H-26.873V-17.851L0-36.737V-281.64H28.962V19.306H0Z" fill="#231f20"/>
<path transform="matrix(1,0,0,-1,0,911.254)" d="M716.525 305.154H745.487V606.1H716.525Z" fill="#231f20"/>
<path transform="matrix(1,0,0,-1,852.7484,305.15394)" d="M0 0H-28.962V-136.661H0V-164.285L22.74-187.77V-300.946H51.702V-164.285H22.74V-136.661L0-112.254Z" fill="#231f20"/>
<path transform="matrix(1,0,0,-1,0,911.254)" d="M823.787 305.154H852.74899V441.815H823.787Z" fill="#231f20"/>
<path transform="matrix(1,0,0,-1,0,911.254)" d="M875.488 469.439H904.44998V606.1H875.488Z" fill="#231f20"/>
<path transform="matrix(1,0,0,-1,1080.0383,441.81495)" d="M0 0V136.661H-28.962V24.407L-51.702 0V-27.624H-80.663V-164.285H-51.702V-51.108L-28.962-27.624V0Z" fill="#231f20"/>
<path transform="matrix(1,0,0,-1,0,911.254)" d="M1080.038 441.815H1051.0759V305.154H1080.038Z" fill="#231f20"/>
<path transform="matrix(1,0,0,-1,0,911.254)" d="M999.375 469.439H1028.337V606.1H999.375Z" fill="#231f20"/>
<path transform="matrix(1,0,0,-1,611.3973,305.57386)" d="M0 0-39.858-28.012-79.716 0V.42H-108.678V-300.526H-79.716V-36.737L-53.441-55.203V-300.526H-24.479V-53.941L0-36.737V-300.526H28.962V.42H0Z" fill="#231f20"/>
</g>
</svg>
